<?xml version="1.0" encoding="UTF-8" standalone="no"?>
<svg
   xmlns:dc="http://purl.org/dc/elements/1.1/"
   xmlns:cc="http://creativecommons.org/ns#"
   xmlns:rdf="http://www.w3.org/1999/02/22-rdf-syntax-ns#"
   xmlns:svg="http://www.w3.org/2000/svg"
   xmlns="http://www.w3.org/2000/svg"
   id="svg8"
   version="1.1"
   viewBox="0 0 210 297"
   height="297mm"
   width="210mm">
  <defs
     id="defs2" />
  <metadata
     id="metadata5">
    <rdf:RDF>
      <cc:Work
         rdf:about="">
        <dc:format>image/svg+xml</dc:format>
        <dc:type
           rdf:resource="http://purl.org/dc/dcmitype/StillImage" />
        <dc:title></dc:title>
      </cc:Work>
    </rdf:RDF>
  </metadata>
  <g
     id="layer1">
    <rect
       ry="12.768001"
       rx="13.280576"
       style="stroke-width:0.25070462"
       y="30.904755"
       x="41.265728"
       height="226.78574"
       width="147.41072"
       id="rect3742" />
    <rect
       style="stroke-width:0.27973244;fill:#325d88;fill-opacity:1"
       ry="13.406396"
       rx="15.746663"
       y="30.904755"
       x="23.878824"
       height="238.125"
       width="164.79762"
       id="rect3751" />
    <rect
       rx="14.941792"
       y="159.79465"
       x="114.90476"
       height="38.931549"
       width="53.294643"
       id="rect3757"
       style="fill:#b3b3b3;stroke-width:0.27408013" />
    <path
       d="m 100.91965,103.09821 c 0.3898,0.55837 -0.71428,0.80968 -1.037327,0.72417 -1.438029,-0.38064 -1.427025,-2.30717 -0.783257,-3.33203 1.370924,-2.182458 4.486664,-1.993013 6.292414,-0.513983 2.99302,2.451473 2.58511,7.030623 0.10516,9.678083 -3.6265,3.87144 -9.85238,3.20693 -13.398539,-0.3978 -4.808844,-4.88827 -3.857425,-12.903772 0.97314,-17.400753 6.228233,-5.798129 16.153509,-4.534766 21.648909,1.608005 6.83399,7.639038 5.23718,19.579258 -2.29382,26.116858 -9.1146,7.91231 -23.164118,5.96309 -30.78447,-3.02448 -9.029798,-10.64988 -6.711104,-26.894749 3.795315,-35.635671 12.24069,-10.183766 30.760345,-7.480018 40.657325,4.602716 11.37194,13.883439 8.26876,34.751855 -5.44375,45.838375 -15.57507,12.59238 -38.861665,9.07638 -51.169421,-6.31599 -13.843425,-17.31292 -9.902049,-43.083184 7.217401,-56.64234 19.094654,-15.123582 47.41068,-10.744999 62.25001,8.14624 9.36227,11.918651 12.30933,27.98867 8.14919,42.5218"
       id="path3786"
       style="fill:#b3b3b3;fill-rule:evenodd;stroke:#000000;stroke-width:0.26458332" />
    <rect
       rx="7"
       y="211.95535"
       x="46.869045"
       height="12.473216"
       width="119.81845"
       id="rect3805"
       style="fill:#b3b3b3;stroke-width:0.19460523" />
    <rect
       rx="7"
       y="234.63393"
       x="46.49107"
       height="12.473216"
       width="119.81845"
       id="rect3805-6"
       style="fill:#b3b3b3;stroke-width:0.19460523" />
    <rect
       rx="2.9589906"
       y="159.79465"
       x="48.380959"
       height="12.473216"
       width="50.648808"
       id="rect3805-0"
       style="fill:#b3b3b3;stroke-width:0.12652527" />
    <rect
       rx="2.9589906"
       y="186.25298"
       x="48.380955"
       height="12.473216"
       width="50.648808"
       id="rect3805-0-2"
       style="fill:#b3b3b3;stroke-width:0.12652527" />
  </g>
</svg>
